<svg xmlns="http://www.w3.org/2000/svg" version="1.1" xmlns:xlink="http://www.w3.org/1999/xlink" xmlns:svgjs="http://svgjs.com/svgjs" width="1440" height="1440" preserveAspectRatio="none" viewBox="0 0 1440 1440"><g mask="url(&quot;#SvgjsMask1003&quot;)" fill="none"><rect width="1440" height="1440" x="0" y="0" fill="rgba(21, 110, 172, 1)"></rect><path d="M98.18 360C98.18 308.38 16.46 327.8 0 267.43C-32.63 147.8 -76.72 56.99 0 0C103.28 -76.72 180 0 360 0C540 0 540 0 720 0C900 0 900 0 1080 0C1241.74 0 1263.2 -32.73 1403.48 0C1443.2 9.27 1435.45 39.15 1440 84C1453.71 219.15 1440 222 1440 360C1440 471.89 1480.79 490.54 1440 583.78C1402.04 670.54 1289.6 631.97 1282.5 720C1269.6 880.08 1348.28 898.13 1400 1080C1427.03 1175.06 1429.13 1175.99 1440 1273.85C1449.13 1355.99 1496.84 1413.77 1440 1440C1316.84 1496.84 1260 1440 1080 1440C1015.2 1440 1011.82 1456.66 950.4 1440C831.82 1407.84 820.79 1342.37 720 1342.37C672.49 1342.37 705.36 1426.01 653.79 1440C525.36 1474.83 506.89 1440 360 1440C182.5 1440 181.53 1442.38 5 1440C1.53 1439.95 0.05 1438.61 0 1435.14C-2.45 1258.61 0 1257.57 0 1080C0 900 0 900 0 720C0 612 -27.17 603.62 0 504C21.92 423.62 98.18 426.67 98.18 360" stroke="rgba(255, 255, 255, 0.25)" stroke-width="2"></path><path d="M720 270C695.39 270 668.57 314.83 668.57 360C668.57 406.28 695.41 452.9 720 452.9C743.98 452.9 765.71 406.31 765.71 360C765.71 314.86 743.96 270 720 270" stroke="rgba(255, 255, 255, 0.25)" stroke-width="2"></path><path d="M234.55 360C303.18 251.77 293.19 136.22 360 136.22C429.85 136.22 443.21 242.83 507.86 360C604.26 534.72 588.3 544.88 682.11 720C694.37 742.88 694.86 751.81 720 756C893.8 784.97 942.22 703.21 1080 786.32C1210.79 865.21 1257.14 937.51 1257.14 1080C1257.14 1203.08 1197.31 1293.46 1080 1317.45C928.74 1348.38 867.83 1155.62 720 1189.83C603 1216.9 660.79 1363.25 550.34 1440C480.79 1488.33 455.17 1440 360 1440C245 1440 230.64 1475.36 130 1440C50.64 1412.11 28.42 1392.2 0 1313.51C-36.58 1212.2 0 1196.76 0 1080C0 900 0 900 0 720C0 712 -4.34 710.66 0 704C112.94 530.66 123.18 535.66 234.55 360" stroke="rgba(255, 255, 255, 0.25)" stroke-width="2"></path><path d="M237.07 0C237.07 37.27 78.74 138.86 0 138.86C-39.8 138.86 -43.78 25.65 0 0C74.75 -43.78 237.07 -32.16 237.07 0" stroke="rgba(255, 255, 255, 0.25)" stroke-width="2"></path><path d="M908.57 360C813.41 183.04 683.68 96.17 729.47 0C769.39 -83.83 904.74 0 1080 0C1176.52 0 1216.97 -59.81 1273.04 0C1385.72 120.19 1462.39 208.42 1417.5 360C1365.87 534.37 1224.7 651.89 1080 651.89C970.23 651.89 988.68 508.98 908.57 360" stroke="rgba(255, 255, 255, 0.25)" stroke-width="2"></path><path d="M17.56 0C17.56 2.76 5.83 10.29 0 10.29C-2.95 10.29 -3.24 1.9 0 0C5.54 -3.24 17.56 -2.38 17.56 0" stroke="rgba(255, 255, 255, 0.25)" stroke-width="2"></path><path d="M1051.43 360C1002.11 182.71 955.39 137.69 966.32 0C969.68 -42.31 1023.16 0 1080 0C1111.3 0 1138.44 -26.66 1142.61 0C1166.57 153.34 1162.2 190.65 1136.25 360C1130.89 394.98 1104.12 408.65 1080 408.65C1061.71 408.65 1058.95 387.04 1051.43 360" stroke="rgba(255, 255, 255, 0.25)" stroke-width="2"></path><path d="M0 900C120.02 843.99 199.63 858.54 360 912C469.63 948.54 522.69 974.83 540 1080C566.14 1238.83 519.85 1294.1 446.9 1440C429.85 1474.1 403.45 1440 360 1440C307.5 1440 296.02 1468.27 255 1440C116.02 1344.21 97 1328.83 0 1191.89C-30.5 1148.83 0 1135.95 0 1080C0 990 -59.98 927.99 0 900" stroke="rgba(255, 255, 255, 0.25)" stroke-width="2"></path><path d="M913.85 1080C913.85 1054.06 1007.27 1023.16 1080 1023.16C1107.49 1023.16 1114.29 1052.42 1114.29 1080C1114.29 1103.82 1105.02 1125.96 1080 1125.96C1004.8 1125.96 913.85 1105.46 913.85 1080" stroke="rgba(255, 255, 255, 0.25)" stroke-width="2"></path></g><defs><mask id="SvgjsMask1003"><rect width="1440" height="1440" fill="#ffffff"></rect></mask></defs></svg>