<svg xmlns="http://www.w3.org/2000/svg" version="1.1" xmlns:xlink="http://www.w3.org/1999/xlink" xmlns:svgjs="http://svgjs.com/svgjs" width="1440" height="560" preserveAspectRatio="none" viewBox="0 0 1440 560"><g mask="url(&quot;#SvgjsMask1583&quot;)" fill="none"><rect width="1440" height="560" x="0" y="0" fill="rgba(21, 110, 172, 1)"></rect><path d="M1440 0L1355.11 0L1440 105.03z" fill="rgba(255, 255, 255, .1)"></path><path d="M1355.11 0L1440 105.03L1440 242.45L816.5099999999999 0z" fill="rgba(255, 255, 255, .075)"></path><path d="M816.51 0L1440 242.45L1440 388L557.14 0z" fill="rgba(255, 255, 255, .05)"></path><path d="M557.14 0L1440 388L1440 388.98L353.42999999999995 0z" fill="rgba(255, 255, 255, .025)"></path><path d="M0 560L565.71 560L0 334.61z" fill="rgba(0, 0, 0, .1)"></path><path d="M0 334.61L565.71 560L764.08 560L0 161.70000000000002z" fill="rgba(0, 0, 0, .075)"></path><path d="M0 161.70000000000005L764.08 560L912.02 560L0 150.77000000000004z" fill="rgba(0, 0, 0, .05)"></path><path d="M0 150.77000000000004L912.02 560L1287.9099999999999 560L0 59.780000000000044z" fill="rgba(0, 0, 0, .025)"></path></g><defs><mask id="SvgjsMask1583"><rect width="1440" height="560" fill="#ffffff"></rect></mask></defs></svg>